HIERARCHY
ROOT Hips
{
	OFFSET 0.00000 0.00000 0.00000
	CHANNELS 6 Xposition Yposition Zposition Zrotation Yrotation Xrotation 
	JOINT LHipJoint
	{
		OFFSET 0 0 0
		CHANNELS 3 Zrotation Yrotation Xrotation
		JOINT LeftHip
		{
			OFFSET 1.09156 -1.61406 0.76500
			CHANNELS 3 Zrotation Yrotation Xrotation
			JOINT LeftKnee
			{
				OFFSET 2.33750 -6.42225 0.00000
				CHANNELS 3 Zrotation Yrotation Xrotation
				JOINT LeftAnkle
				{
					OFFSET 2.49247 -6.84800 0.00000
					CHANNELS 3 Zrotation Yrotation Xrotation
					JOINT LeftToe
					{
						OFFSET 0.15312 -0.42069 1.45461
						CHANNELS 3 Zrotation Yrotation Xrotation
						End Site
						{
							OFFSET 0.00000 -0.00000 0.77046
						}
					}
				}
			}
		}
	}
	JOINT RHipJoint
	{
		OFFSET 0 0 0
		CHANNELS 3 Zrotation Yrotation Xrotation
		JOINT RightHip
		{
			OFFSET -0.99883 -1.61406 0.76500
			CHANNELS 3 Zrotation Yrotation Xrotation
			JOINT RightKnee
			{
				OFFSET -2.36877 -6.50815 0.00000
				CHANNELS 3 Zrotation Yrotation Xrotation
				JOINT RightAnkle
				{
					OFFSET -2.53452 -6.96353 0.00000
					CHANNELS 3 Zrotation Yrotation Xrotation
					JOINT RightToe
					{
						OFFSET -0.13156 -0.36145 1.63237
						CHANNELS 3 Zrotation Yrotation Xrotation
						End Site
						{
							OFFSET -0.00000 -0.00000 0.84979
						}
					}
				}
			}
		}
	}
	JOINT lowerback
	{
		OFFSET 0 0 0
		CHANNELS 3 Zrotation Yrotation Xrotation
		JOINT Chest
		{
			OFFSET -0.02431 1.98242 -0.13616
			CHANNELS 3 Zrotation Yrotation Xrotation
			JOINT Chest2
			{
				OFFSET 0.03629 1.98974 -0.02954
				CHANNELS 3 Zrotation Yrotation Xrotation
				JOINT lowerneck
				{
					OFFSET 0 0 0
					CHANNELS 3 Zrotation Yrotation Xrotation
					JOINT Neck
					{
						OFFSET 0.09349 1.40783 0.22333
						CHANNELS 3 Zrotation Yrotation Xrotation
						JOINT Head
						{
							OFFSET -0.04273 1.44500 -0.06495
							CHANNELS 3 Zrotation Yrotation Xrotation
							End Site
							{
								OFFSET -0.02251 1.44600 -0.04544
							}
						}
					}
				}
				JOINT LeftCollar
				{
					OFFSET 0 0 0
					CHANNELS 3 Zrotation Yrotation Xrotation
					JOINT LeftShoulder
					{
						OFFSET 3.49137 0.85126 -0.29740
CHANNELS 3 Zrotation Xrotation Yrotation
						JOINT LeftElbow
						{
OFFSET 0 -5.060350 0.000000
CHANNELS 3 Zrotation Xrotation Yrotation
							JOINT LeftWrist
							{
OFFSET 0 -3.147800 0.000000
CHANNELS 3 Zrotation Xrotation Yrotation
								JOINT lhand
								{
									OFFSET 0 0 0
CHANNELS 3 Zrotation Xrotation Yrotation
									JOINT LFingers
									{
OFFSET 0 -0.606750 0.000000
CHANNELS 3 Zrotation Xrotation Yrotation
										End Site
										{
OFFSET 0 -0.489180 0.000000
										}
									}
								}
								JOINT LThumb
								{
OFFSET 0 0.000000 0.000000
CHANNELS 3 Zrotation Xrotation Yrotation
									End Site
									{
OFFSET 0 -0.496640 0.496640
									}
								}
							}
						}
					}
				}
				JOINT RightCollar
				{
					OFFSET 0 0 0
					CHANNELS 3 Zrotation Yrotation Xrotation
					JOINT RightShoulder
					{
						OFFSET -3.28101 0.69707 0.00747
CHANNELS 3 Zrotation Xrotation Yrotation
						JOINT RightElbow
						{
OFFSET 0 -5.122730 -0.000000
CHANNELS 3 Zrotation Xrotation Yrotation
							JOINT RightWrist
							{
OFFSET 0 -3.422000 0.000000
CHANNELS 3 Zrotation Xrotation Yrotation
								JOINT rhand
								{
									OFFSET 0 0 0
CHANNELS 3 Zrotation Xrotation Yrotation
									JOINT RFingers
									{
OFFSET 0 -0.704600 0.000000
CHANNELS 3 Zrotation Xrotation Yrotation
										End Site
										{
OFFSET 0 -0.568070 0.000000
										}
									}
								}
								JOINT RThumb
								{
OFFSET 0 0.000000 0.000000
CHANNELS 3 Zrotation Xrotation Yrotation
									End Site
									{
OFFSET 0 -0.576740 0.576740
									}
								}
							}
						}
					}
				}
			}
		}
	}
}
MOTION
Frames: 9
Frame Time: 0.008333333333333333
-33.628675 15.902418 -1.530952 459.603995 90.929465 464.389508 0.000000 0.000000 0.000000 -18.477431 -2.937225 -8.897700 2.328489 9.519186 27.433233 1.699905 5.903785 -27.352670 0.007600 -0.562060 -1.544529 0.000000 0.000000 0.000000 14.401670 6.621896 -3.965809 -1.116269 -6.711825 18.864382 0.240588 -14.173124 -17.123878 -0.834251 5.824771 -16.277384 -2.795324 -0.869370 -6.432147 0.682831 -0.939643 -2.794406 2.206313 -0.421269 0.782075 4.345667 2.758152 -2.578101 0.058625 3.526640 8.146201 -0.606404 1.915051 3.146509 0.000000 0.000000 0.000000 -0.573669 -3.925927 -21.641796 6.376153 -10.888035 0.608252 14.360286 19.832000 -45.012831 0.000000 0.000000 0.000000 -7.125000 0.000000 0.000000 -40.013865 72.477279 27.298951 0.000000 0.000000 0.000000 1.220608 0.863690 6.303725 -8.219846 -13.908609 -1.004347 -25.475509 3.505581 -32.365546 0.000000 0.000000 0.000000 7.125000 0.000000 0.000000 3.604656 -5.028455 3.914259
-33.624472 15.905677 -1.543481 467.861429 91.185403 472.506935 0.000000 0.000000 0.000000 -18.332549 -2.911970 -8.724978 2.339247 9.539617 27.498457 1.715881 6.098455 -27.574573 0.002898 -0.348500 -0.957550 0.000000 0.000000 0.000000 14.571657 6.260832 -3.930695 -1.108583 -6.689501 18.798806 0.169246 -13.567122 -17.122794 -0.812848 5.751139 -16.064626 -2.821436 -0.962149 -6.366180 0.936473 -1.070154 -2.655075 2.472914 -0.490701 0.901540 3.306820 2.225139 -2.758782 0.237664 2.844061 8.238790 -0.391415 1.550869 3.169787 0.000000 0.000000 0.000000 -0.973835 -4.102171 -19.883146 6.179501 -10.561211 0.571766 15.472983 21.759061 -44.501472 0.000000 0.000000 0.000000 -7.125000 0.000000 0.000000 -37.660984 72.508800 25.591435 0.000000 0.000000 0.000000 0.961725 0.556910 6.781561 -8.168091 -13.825007 -0.991916 -25.950796 3.494390 -32.392137 0.000000 0.000000 0.000000 7.125000 0.000000 0.000000 3.344075 -5.172189 3.637847
-33.628889 15.903842 -1.543951 454.733447 91.297188 459.427260 0.000000 0.000000 0.000000 -18.056439 -2.498399 -9.049816 2.359234 9.577443 27.618815 1.766113 5.374638 -27.515221 0.009718 -0.637132 -1.750859 0.000000 0.000000 0.000000 14.783524 6.353367 -3.786148 -1.087319 -6.627201 18.615566 0.221716 -13.994798 -17.091995 -0.804908 5.722879 -15.983263 -2.631973 -0.951279 -6.372672 0.741418 -1.064331 -2.626966 2.165448 -0.490423 0.927583 3.265725 1.531476 -2.788132 0.155222 1.924411 8.569209 -0.443993 1.096712 3.273273 0.000000 0.000000 0.000000 -0.621860 -4.259259 -18.474571 6.006734 -10.273464 0.540507 14.152398 22.272722 -43.936373 0.000000 0.000000 0.000000 -7.125000 0.000000 0.000000 -37.796569 71.634244 25.005737 0.000000 0.000000 0.000000 1.491203 0.500584 6.350611 -8.241292 -13.943258 -1.009498 -26.159703 3.327071 -31.897090 0.000000 0.000000 0.000000 7.125000 0.000000 0.000000 3.139397 -4.711105 3.391501
-33.625288 15.909776 -1.563653 459.478249 91.769213 464.329461 0.000000 0.000000 0.000000 -17.709836 -2.948068 -8.972628 2.351008 9.561883 27.569181 1.687271 6.148692 -27.406703 0.008208 -0.585730 -1.609610 0.000000 0.000000 0.000000 15.170827 6.398237 -4.020795 -1.087166 -6.626646 18.614010 0.121784 -13.429338 -17.554924 -0.678228 5.264066 -14.663662 -1.863930 -0.781243 -6.633212 0.578481 -0.876674 -2.539170 1.575928 -0.404590 1.138694 3.042360 1.036310 -2.730006 0.466279 1.248904 8.356833 -0.330125 0.762508 3.171291 0.000000 0.000000 0.000000 -0.261078 -4.623691 -17.206428 5.745590 -9.837149 0.494855 13.662241 23.344568 -43.992451 0.000000 0.000000 0.000000 -7.125000 0.000000 0.000000 -38.433410 71.505374 25.360487 0.000000 0.000000 0.000000 1.874174 0.097361 5.697579 -8.115661 -13.740084 -0.979408 -25.860965 3.614783 -32.293063 0.000000 0.000000 0.000000 7.125000 0.000000 0.000000 3.376627 -5.047688 3.666819
-33.631693 15.909511 -1.564608 459.358516 90.858016 464.523967 0.000000 0.000000 0.000000 -18.616837 -2.512645 -9.488599 2.319647 9.502377 27.379902 1.710436 5.484185 -27.189962 0.002157 -0.245010 -0.673270 0.000000 0.000000 0.000000 14.116368 6.213936 -4.554733 -1.113399 -6.703542 18.839914 0.164360 -13.616817 -17.270695 -0.759673 5.551883 -15.493125 -3.069421 -0.982650 -6.761290 0.433086 -1.060024 -2.622789 2.088449 -0.489596 1.148590 2.972550 0.665990 -3.109156 -0.022675 0.781090 8.845713 -0.493558 0.516804 3.408560 0.000000 0.000000 0.000000 -0.322883 -4.443074 -17.919208 5.807303 -9.940440 0.505447 14.457966 23.168575 -44.302716 0.000000 0.000000 0.000000 -7.125000 0.000000 0.000000 -38.279223 72.006855 25.648078 0.000000 0.000000 0.000000 1.671854 0.069533 6.888621 -8.150225 -13.796027 -0.987630 -25.424059 2.571447 -32.517878 0.000000 0.000000 0.000000 7.125000 0.000000 0.000000 3.660048 -5.173133 3.982963
-33.632535 15.907568 -1.577186 454.282972 90.737222 459.454866 0.000000 0.000000 0.000000 -18.788073 -2.393028 -9.570372 2.322537 9.507860 27.397258 1.724965 5.222234 -27.147777 0.005010 -0.396053 -1.088310 0.000000 0.000000 0.000000 13.911023 6.005252 -4.665682 -1.115572 -6.709831 18.858542 0.193399 -13.757323 -17.096396 -0.818827 5.773137 -16.127801 -3.377070 -1.434428 -6.773425 0.749855 -1.647490 -2.586981 2.540747 -0.783488 1.243646 1.592490 0.671257 -2.658339 0.407961 0.843352 8.293415 -0.112643 0.510709 3.118975 0.000000 0.000000 0.000000 -0.954875 -4.246480 -16.061290 5.800513 -9.929038 0.504319 14.499832 23.844614 -44.242907 0.000000 0.000000 0.000000 -7.125000 0.000000 0.000000 -38.102030 71.978279 25.496947 0.000000 0.000000 0.000000 1.126087 0.040702 8.044675 -8.174876 -13.836016 -0.993527 -25.506602 2.866648 -32.350216 0.000000 0.000000 0.000000 7.125000 0.000000 0.000000 3.584593 -5.020233 3.891968
-33.634876 15.907916 -1.593929 440.058679 90.947496 445.167745 0.000000 0.000000 0.000000 -18.568213 -2.343479 -9.656413 2.345428 9.551298 27.535437 1.743909 5.094770 -27.211519 0.006192 -0.505052 -1.387893 0.000000 0.000000 0.000000 14.130005 5.906570 -4.502202 -1.095931 -6.652463 18.689815 0.190479 -13.757113 -17.138170 -0.771442 5.604291 -15.641440 -3.167692 -1.468429 -6.576924 0.778910 -1.715643 -2.511446 2.450788 -0.820154 1.212802 1.757220 0.293870 -3.152873 -0.089131 0.357297 8.732376 -0.319612 0.260036 3.363523 0.000000 0.000000 0.000000 -0.929210 -4.169385 -16.181095 5.861097 -10.030232 0.514799 14.722650 24.250631 -44.605665 0.000000 0.000000 0.000000 -7.125000 0.000000 0.000000 -38.691075 72.317500 26.195962 0.000000 0.000000 0.000000 1.151091 -0.219567 7.660553 -8.098400 -13.712249 -0.975355 -25.125889 3.077305 -32.345052 0.000000 0.000000 0.000000 7.125000 0.000000 0.000000 3.796436 -4.922943 4.117002
-33.630373 15.909784 -1.596371 444.259925 90.915206 449.271451 0.000000 0.000000 0.000000 -18.695559 -2.087116 -9.567752 2.335982 9.533339 27.478394 1.761045 4.891551 -27.227122 0.001505 -0.224918 -0.617861 0.000000 0.000000 0.000000 14.048680 6.098844 -4.306530 -1.108850 -6.690294 18.801122 0.146685 -13.637314 -17.551102 -0.680055 5.271839 -14.685715 -3.627799 -1.625376 -6.283092 1.008499 -1.911411 -2.610659 2.939983 -0.909579 0.981751 1.299672 0.018462 -2.870584 -0.372233 0.044077 8.592780 -0.343514 0.078158 3.257284 0.000000 0.000000 0.000000 -1.344996 -3.792055 -15.310432 5.844236 -10.002118 0.511901 14.365109 24.610584 -44.756104 0.000000 0.000000 0.000000 -7.125000 0.000000 0.000000 -39.407831 72.298359 26.705899 0.000000 0.000000 0.000000 0.708610 0.018784 8.467423 -8.128752 -13.761331 -0.982528 -25.499017 2.441307 -32.077343 0.000000 0.000000 0.000000 7.125000 0.000000 0.000000 3.541383 -4.736408 3.828752
-33.626563 15.902900 -1.607404 457.016836 90.871082 462.008648 0.000000 0.000000 0.000000 -18.792561 -2.620182 -9.326824 2.347533 9.555299 27.548188 1.703586 5.672996 -27.247559 0.000157 0.041762 0.114804 0.000000 0.000000 0.000000 14.028311 6.253296 -4.313695 -1.105458 -6.680350 18.771721 0.231622 -14.036332 -17.021160 -0.895067 6.029632 -16.870402 -2.945245 -1.564834 -6.499004 0.503770 -1.857792 -2.382879 2.030917 -0.896971 1.295524 1.320641 -0.228842 -2.866619 0.043761 -0.327837 8.311348 -0.225375 -0.093830 3.156530 0.000000 0.000000 0.000000 -0.593614 -4.043312 -15.168137 5.838099 -9.991930 0.510791 13.952603 24.380736 -45.121960 0.000000 0.000000 0.000000 -7.125000 0.000000 0.000000 -40.689845 72.408198 27.744051 0.000000 0.000000 0.000000 1.552389 -0.481111 7.621119 -7.967550 -13.500277 -0.944585 -25.627638 3.194058 -32.253312 0.000000 0.000000 0.000000 7.125000 0.000000 0.000000 3.499991 -4.949503 3.795747
